HIERARCHY
ROOT Hips
{
  OFFSET -331.093 83.8371 -317.828
  CHANNELS 6 Xposition Yposition Zposition Zrotation Xrotation Yrotation
  JOINT LeftUpLeg
  {
    OFFSET 8.64259 1.95398 -2.38835
    CHANNELS 3 Zrotation Xrotation Yrotation
    JOINT LeftLeg
    {
      OFFSET 43.7702 0 0
      CHANNELS 3 Zrotation Xrotation Yrotation
      JOINT LeftFoot
      {
        OFFSET 40.6238 0 0
        CHANNELS 3 Zrotation Xrotation Yrotation
        JOINT LeftToeBase
        {
          OFFSET 12.7242 0 0
          CHANNELS 3 Zrotation Xrotation Yrotation
          End Site
          {
            OFFSET 0 0 0
          }
        }
      }
    }
  }
  JOINT RightUpLeg
  {
    OFFSET -8.2249 1.95398 -2.59336
    CHANNELS 3 Zrotation Xrotation Yrotation
    JOINT RightLeg
    {
      OFFSET 43.5653 0 0
      CHANNELS 3 Zrotation Xrotation Yrotation
      JOINT RightFoot
      {
        OFFSET 40.6238 0 0
        CHANNELS 3 Zrotation Xrotation Yrotation
        JOINT RightToeBase
        {
          OFFSET 12.7242 0 0
          CHANNELS 3 Zrotation Xrotation Yrotation
          End Site
          {
            OFFSET 0 0 0
          }
        }
      }
    }
  }
  JOINT Spine
  {
    OFFSET 0.165834 0.87714 6.61349
    CHANNELS 3 Zrotation Xrotation Yrotation
    JOINT Spine1
    {
      OFFSET 7.38963 1.71661e-005 0
      CHANNELS 3 Zrotation Xrotation Yrotation
      JOINT Spine2
      {
        OFFSET 11.9445 1.14441e-005 0
        CHANNELS 3 Zrotation Xrotation Yrotation
        JOINT Spine3
        {
          OFFSET 14.7254 4.19617e-005 0
          CHANNELS 3 Zrotation Xrotation Yrotation
          JOINT Spine4
          {
            OFFSET 10.9679 0 0
            CHANNELS 3 Zrotation Xrotation Yrotation
            JOINT RightShoulder
            {
              OFFSET 2.46616 -1.6653 3.69651
              CHANNELS 3 Zrotation Xrotation Yrotation
              JOINT RightArm
              {
                OFFSET 13.0012 0 0
                CHANNELS 3 Zrotation Xrotation Yrotation
                JOINT RightForeArm
                {
                  OFFSET 28.7848 1.62311e-005 0
                  CHANNELS 3 Zrotation Xrotation Yrotation
                  JOINT RightHand
                  {
                    OFFSET 26.5688 1.62095e-005 0
                    CHANNELS 3 Zrotation Xrotation Yrotation
                    End Site
                    {
                      OFFSET 0 0 0
                    }
                  }
                }
              }
            }
            JOINT LeftShoulder
            {
              OFFSET 2.38034 -1.29275 -3.7523
              CHANNELS 3 Zrotation Xrotation Yrotation
              JOINT LeftArm
              {
                OFFSET 16.3182 6.07031e-005 0
                CHANNELS 3 Zrotation Xrotation Yrotation
                JOINT LeftForeArm
                {
                  OFFSET 27.0901 0 0
                  CHANNELS 3 Zrotation Xrotation Yrotation
                  JOINT LeftHand
                  {
                    OFFSET 24.5451 1.51738e-005 0
                    CHANNELS 3 Zrotation Xrotation Yrotation
                    End Site
                    {
                      OFFSET 0 0 0
                    }
                  }
                }
              }
            }
            JOINT Neck
            {
              OFFSET 5.0226 -0.0266342 0
              CHANNELS 3 Zrotation Xrotation Yrotation
              JOINT Head
              {
                OFFSET 6.69364 2.86102e-005 0
                CHANNELS 3 Zrotation Xrotation Yrotation
                End Site
                {
                  OFFSET 0 0 0
                }
              }
            }
          }
        }
      }
    }
  }
}
MOTION
Frames:	11
Frame Time:	0.0416667
-39.3617 89.1744 -49.127 52.051 -66.8149 35.1259 -174.189 1.46227 90.4626 -53.4838 21.2284 0.799967 50.7021 -7.12162 -1.91696 31.3235 6.33993 15.7334 169.921 44.844 95.7538 -52.4437 18.7702 3.28776 80.8895 -8.07136 -3.72135 27.8322 -0.191908 -2.05048 0.162185 7.6697 -89.5797 11.5335 0.519302 0.782392 -0.13752 0.553241 0.75878 -22.6713 0.260158 0.902282 -2.6586 0.260164 0.902288 91.0815 -42.2104 -100.58 29.432 -20.9757 23.8145 -17.1544 -5.33854 -69.381 -23.5433 -0.749551 -1.63518 -91.6648 -46.0342 75.7198 -36.3366 15.2205 26.1288 16.2675 -3.8069 -80.1859 24.5904 2.34032 5.72246 -2.66238 -15.7744 4.03905 13.1228 -16.116 -1.12191 
-38.1093 87.9728 -40.8345 47.8854 -69.1051 32.7286 -173.827 11.8314 90.9577 -72.0117 22.111 1.83903 51.2904 -6.39701 0.481906 31.7213 7.24856 17.2981 171.159 37.5057 98.7128 -52.6007 20.5108 2.15537 87.2517 -10.7901 -4.39864 30.8178 -0.377961 -2.47627 0.33285 7.99426 -89.9544 10.8858 0.683834 0.0251205 -0.784926 0.684272 -0.00502073 -23.3215 0.644658 0.22948 -3.30884 0.644665 0.229481 90.6223 -42.6853 -101.223 23.0854 -18.0292 12.5361 -19.1663 -5.65689 -70.143 -27.8545 -0.576947 -2.81425 -92.2725 -47.0853 75.0674 -37.7585 14.583 28.319 13.7244 0.520571 -70.5786 28.5622 2.92488 6.50322 -1.07736 -15.3186 5.01044 14.9138 -15.7514 -0.662941 
-37.1141 87.1585 -32.8663 38.2382 -70.462 24.4024 -173.551 25.5498 91.3308 -86.0448 19.0994 2.51564 51.37 -6.13207 1.65108 31.585 6.72545 16.1278 172.025 30.238 100.312 -48.9581 21.0722 1.65908 91.9143 -14.1646 -4.92294 32.937 -0.445096 -2.40144 0.633097 8.10432 -90.1476 10.6677 1.19291 -0.402076 -1.00275 1.17405 -0.454213 -23.5423 1.25859 -0.0249119 -3.52964 1.25859 -0.0249181 90.4379 -40.3383 -102.175 21.6445 -14.8002 2.57358 -22.9684 -4.79168 -73.956 -31.112 -1.04118 -1.32102 -92.4673 -47.1349 74.7832 -40.2662 15.037 31.9831 13.1538 4.16966 -63.9749 30.5754 3.4094 7.42671 0.745431 -15.0529 5.60075 15.26 -15.5332 -0.0924871 
-36.3547 87.1312 -24.328 24.2841 -70.4632 9.89731 -171.294 39.7043 89.0849 -91.6789 15.4255 2.21644 52.2721 -5.77045 0.868178 30.0578 5.33115 16.5674 172.632 23.5844 98.4809 -44.5848 15.8836 0.824665 92.5809 -14.5417 -4.90514 37.5288 -0.686443 -2.75121 1.15742 8.00567 -89.9898 10.8672 2.30925 -0.196241 -0.801773 2.29839 -0.297744 -23.3529 2.26142 0.507216 -3.34024 2.26142 0.507228 91.59 -37.0131 -101.086 24.0581 -12.0315 -4.37783 -24.0262 -1.39291 -81.1865 -31.3734 -0.999648 -1.50184 -91.9133 -46.3663 75.425 -43.3514 17.57 38.1623 15.4072 5.56267 -64.4832 27.7065 2.98139 7.00652 2.21776 -15.1007 5.60217 14.0251 -15.5039 0.820279 
-35.8916 88.341 -14.3048 12.6428 -70.9615 -2.56555 -168.897 48.3436 86.3592 -87.6864 14.6543 1.15822 54.206 -5.03876 0.283825 29.8969 5.99467 19.2639 172.831 14.2761 95.0689 -37.9129 8.01656 -0.558617 86.0766 -11.5125 -4.5468 44.2135 -1.08349 -3.0609 1.66832 7.95394 -89.6909 10.9658 3.46447 0.285806 -0.70057 3.47369 0.132861 -23.2686 3.21824 1.31486 -3.25597 3.21824 1.31485 92.3036 -35.4498 -100.218 26.4122 -11.2865 -8.43038 -26.5829 2.51237 -87.8437 -31.6752 -1.19827 -0.794589 -90.7384 -44.462 76.7599 -47.9092 19.2446 46.344 16.3073 2.3477 -69.2427 25.4174 2.31939 5.36236 1.34004 -16.1924 4.12537 13.69 -16.4512 -0.0799191 
-35.5037 90.1949 -3.55273 7.39295 -70.4572 -8.38556 -168.978 53.6822 84.2085 -75.9472 13.8739 -0.559763 56.1797 -4.44154 -0.825346 29.4698 5.69066 19.7473 172.382 6.79147 91.2825 -31.67 -0.684236 -1.97327 72.4632 -5.00411 -2.72372 48.3188 -1.12614 -2.7058 1.92931 7.83391 -89.426 11.1979 4.10675 0.739394 -0.466656 4.1353 0.557613 -23.0443 3.69444 1.94098 -3.03165 3.69444 1.94098 92.8355 -33.0904 -99.8747 28.9947 -12.3242 -10.393 -28.5198 5.66858 -93.5607 -31.7751 -1.32207 -0.349026 -89.3764 -42.0316 78.3353 -52.0085 19.33 52.079 16.3369 -0.967169 -73.1174 24.4409 2.18553 5.15703 1.93341 -16.7373 3.34958 11.8431 -17.0299 -1.35159 
-34.769 91.7375 7.33842 7.34876 -69.2449 -9.03305 -171.059 56.496 82.995 -58.2644 13.3335 -2.83786 55.7418 -5.59373 -3.55651 30.729 7.5842 21.4045 170.954 2.69539 87.4049 -27.4583 -7.39456 -2.67017 55.073 2.97718 2.04639 37.667 -0.0338138 0.620183 2.0113 7.65074 -89.2424 11.5574 4.35578 1.06148 -0.106487 4.39827 0.868382 -22.6861 3.83519 2.32309 -2.67344 3.83519 2.32308 92.634 -31.4847 -100.723 31.2259 -13.9663 -8.67239 -29.6534 8.69249 -100.217 -33.0904 -1.67658 0.74396 -89.8203 -40.7628 77.2862 -53.7593 17.6958 54.9049 16.1437 -3.06694 -75.6725 24.5933 1.9842 4.26765 2.7309 -17.1396 3.79815 10.3115 -17.6259 -2.60365 
-34.5081 93.0509 18.6344 5.25849 -68.562 -10.0619 -174.918 55.233 85.0489 -37.1146 18.7422 -4.55171 53.6997 -4.99555 0.272256 33.016 10.5238 22.4361 172.289 -2.16958 87.3797 -25.7381 -11.3905 -5.22336 46.7898 6.81143 5.52057 23.6961 -0.468954 -6.8219 2.11521 7.53408 -89.2709 11.793 4.54931 0.971757 0.129807 4.58766 0.770174 -22.4556 4.04667 2.29603 -2.44301 4.04668 2.29602 93.1131 -30.8835 -99.9597 31.8796 -17.1746 -7.08929 -30.2503 10.8265 -102.426 -32.7279 -1.79285 1.23767 -89.9855 -40.3154 76.8952 -54.1131 16.7851 54.3792 16.3262 -4.16076 -77.4407 25.1644 1.88437 3.67687 3.7365 -17.038 4.43932 9.16759 -17.6729 -3.0663 
-34.7299 92.988 29.8537 2.38871 -68.7256 -10.3694 -176.305 53.527 87.2923 -25.0866 16.2107 -4.74971 52.4783 -6.26285 -2.00162 39.0749 19.1189 25.7263 175.754 -4.13235 90.3589 -33.3219 -6.74922 -6.59204 47.6498 5.70341 4.66971 22.2382 -0.328631 -7.23255 2.13927 7.47737 -89.4301 11.9138 4.52228 0.650143 0.250658 4.54649 0.45005 -22.3379 4.11749 1.98137 -2.32527 4.11748 1.98136 93.1989 -31.1336 -99.7207 32.7873 -20.6195 -4.57636 -27.1824 9.6087 -100.342 -32.3718 -1.4724 0.107085 -89.6799 -40.3635 77.415 -53.1107 15.7915 52.0393 15.4509 -5.61989 -80.0722 25.7693 2.00637 3.97943 4.33029 -16.4916 3.42483 8.72524 -16.9475 -2.85401 
-35.1688 91.7154 41.1302 1.00812 -71.038 -9.59754 -174.531 51.4027 86.755 -27.2181 14.8405 -5.28181 52.8941 -6.60971 -3.26143 41.8548 23.1497 26.8804 177.746 -3.5138 93.2489 -48.0638 0.122606 -6.15953 48.228 4.92304 3.9629 20.8973 -0.22242 -7.32768 1.93345 7.56234 -89.5363 11.7464 4.06315 0.495874 0.0817608 4.08103 0.316266 -22.4973 3.72602 1.69572 -2.48468 3.72603 1.69571 92.6105 -33.0179 -100.322 34.0895 -23.4091 -0.433802 -24.2289 6.6549 -94.1515 -31.4012 -1.20367 -0.707878 -89.7285 -41.2536 77.5634 -50.2245 14.3666 48.5765 15.2069 -6.24146 -82.6354 26.5076 2.52936 5.77162 2.31175 -15.5077 1.27077 9.68807 -15.661 -2.96445 
-35.7792 90.2485 52.1913 2.31374 -74.274 -7.80643 -173.024 47.9572 84.6451 -37.2667 20.7397 -5.92235 57.6119 -0.280388 7.075 38.4216 11.2038 10.3824 177.047 0.542254 94.2171 -66.4379 6.33696 -4.29082 47.7478 4.175 3.38106 19.7879 -0.116552 -6.95068 1.51984 7.74954 -89.5018 11.3682 3.25662 0.665249 -0.298759 3.28275 0.521131 -22.8599 2.90603 1.61397 -2.84728 2.90603 1.61397 91.8198 -35.89 -100.985 35.0497 -25.2294 5.12585 -20.4613 3.86638 -88.1139 -31.2655 -1.41402 0.100948 -90.7917 -43.5432 76.4362 -44.7583 13.1704 43.7274 14.785 -6.18734 -84.3224 27.84 2.0972 3.72194 -1.44278 -14.2585 0.00328017 12.2114 -14.4963 -4.1756 
